# xmcd
#
# Track frame offsets:
#	150
#	23130
#	40244
#	58258
#	80080
#	108776
#	126380
#	144990
#	167444
#	187990
#
# Disc length: 2687 seconds
# Revision: 0
# Processed by: cddbd v1.5.2PL0 Copyright (c) Steve Scherf et al.
# Submitted via: dBpowerAMP V12.0
#
DISCID=810a7d0a
DTITLE=Mathis Haug - Playing My Dues
DYEAR=2011
DGENRE=Blues
TTITLE0=Playing My Dues
TTITLE1=Birthday Cake
TTITLE2=Workless
TTITLE3=Family Fire
TTITLE4=5 mn Conspiracy
TTITLE5=The Wind Blew Strong
TTITLE6=Pickpocket
TTITLE7=A Certain Frame Of Mind
TTITLE8=Driftin
TTITLE9=The Caretaker's Parade
EXTD=
EXTT0=
EXTT1=
EXTT2=
EXTT3=
EXTT4=
EXTT5=
EXTT6=
EXTT7=
EXTT8=
EXTT9=
PLAYORDER=
